<svg id="Capa_1" data-name="Capa 1" xmlns="http://www.w3.org/2000/svg" viewBox="0 0 214.8 53.79"><defs><style>.cls-1{fill:#e2e2e1;}</style></defs><path class="cls-1" d="M86.27,25.56a8.73,8.73,0,0,1-.43,2.84,7.78,7.78,0,0,1-1.19,2.25,7.88,7.88,0,0,1-1.82,1.68,10.35,10.35,0,0,1-2.33,1.16,13.53,13.53,0,0,1-2.72.67,20.93,20.93,0,0,1-3.21.22H66.75a1.88,1.88,0,0,1-1.26-.44A1.84,1.84,0,0,1,65,32.49V6.86a1.8,1.8,0,0,1,.51-1.44A1.84,1.84,0,0,1,66.75,5h7.39a19.91,19.91,0,0,1,4.58.46A9.06,9.06,0,0,1,81.88,6.8a6.13,6.13,0,0,1,2,2.33,7.48,7.48,0,0,1,.68,3.32,7.28,7.28,0,0,1-.27,2,6,6,0,0,1-.8,1.72,5.68,5.68,0,0,1-1.28,1.36,6.63,6.63,0,0,1-1.74.95,8.1,8.1,0,0,1,2.31.8,6.56,6.56,0,0,1,1.84,1.47,6.82,6.82,0,0,1,1.24,2.1A7.65,7.65,0,0,1,86.27,25.56ZM78.55,13.18a4.21,4.21,0,0,0-.28-1.59,2.87,2.87,0,0,0-.81-1.17,3.93,3.93,0,0,0-1.38-.72,7.76,7.76,0,0,0-2.21-.25h-3v7.64h3.34a5.78,5.78,0,0,0,2.07-.31,3.52,3.52,0,0,0,1.28-.84,3.36,3.36,0,0,0,.77-1.25A4.73,4.73,0,0,0,78.55,13.18Zm1.52,12.59a4.74,4.74,0,0,0-.34-1.83,3.46,3.46,0,0,0-1-1.35,4.58,4.58,0,0,0-1.68-.85,10.21,10.21,0,0,0-2.66-.29H70.84v8.36h4.32a7.42,7.42,0,0,0,2.1-.26,4.26,4.26,0,0,0,1.48-.77,3.56,3.56,0,0,0,1-1.28A4.11,4.11,0,0,0,80.07,25.77Z"/><path class="cls-1" d="M108,33.67a.6.6,0,0,1-.23.5,1.43,1.43,0,0,1-.72.26,8.7,8.7,0,0,1-1.44.08,9,9,0,0,1-1.49-.08,1.2,1.2,0,0,1-.66-.26.63.63,0,0,1-.19-.5V32.06a9.45,9.45,0,0,1-2.85,2.09,8.32,8.32,0,0,1-3.56.75,9.94,9.94,0,0,1-3-.42,6.7,6.7,0,0,1-2.35-1.25A5.65,5.65,0,0,1,90,31.17a7,7,0,0,1-.54-2.86,6.51,6.51,0,0,1,.69-3.08,5.63,5.63,0,0,1,2.07-2.16,10.53,10.53,0,0,1,3.42-1.26,24.57,24.57,0,0,1,4.75-.41h2V20.18a6.34,6.34,0,0,0-.19-1.67,2.78,2.78,0,0,0-.64-1.2,2.66,2.66,0,0,0-1.18-.7,6.33,6.33,0,0,0-1.83-.23A9.46,9.46,0,0,0,96,16.7a15.19,15.19,0,0,0-2,.7c-.58.26-1.06.5-1.45.71a2.12,2.12,0,0,1-.94.32.7.7,0,0,1-.44-.16,1.15,1.15,0,0,1-.32-.46,3,3,0,0,1-.19-.72,5.69,5.69,0,0,1-.07-1A4.58,4.58,0,0,1,90.7,15a1.8,1.8,0,0,1,.43-.74,4.58,4.58,0,0,1,1.12-.73,14.12,14.12,0,0,1,1.86-.74,17.73,17.73,0,0,1,2.33-.55A14.79,14.79,0,0,1,99,12a15.57,15.57,0,0,1,4.08.47,6.85,6.85,0,0,1,2.78,1.43,5.57,5.57,0,0,1,1.6,2.49A11.7,11.7,0,0,1,108,20ZM102.38,25H100.2a11.41,11.41,0,0,0-2.36.21,4.48,4.48,0,0,0-1.59.61,2.49,2.49,0,0,0-.9,1,3,3,0,0,0-.28,1.33,2.55,2.55,0,0,0,.8,2,3.26,3.26,0,0,0,2.24.73,4.23,4.23,0,0,0,2.22-.62,9,9,0,0,0,2-1.79Z"/><path class="cls-1" d="M119.42,33.61a.59.59,0,0,1-.13.39,1,1,0,0,1-.47.29,4.61,4.61,0,0,1-.87.17,19.35,19.35,0,0,1-2.78,0,4.61,4.61,0,0,1-.87-.17,1,1,0,0,1-.47-.29.59.59,0,0,1-.13-.39V3.73a.65.65,0,0,1,.13-.41A1,1,0,0,1,114.3,3a3.8,3.8,0,0,1,.87-.19,13.84,13.84,0,0,1,2.78,0,3.8,3.8,0,0,1,.87.19,1,1,0,0,1,.47.31.65.65,0,0,1,.13.41Z"/><path class="cls-1" d="M137.13,31.61a7.35,7.35,0,0,1-.13,1.53,1.55,1.55,0,0,1-.33.75,2.07,2.07,0,0,1-.6.39,6,6,0,0,1-.93.29,9.69,9.69,0,0,1-1.16.19,10.64,10.64,0,0,1-1.26.07,9.06,9.06,0,0,1-3-.43,4.87,4.87,0,0,1-2.06-1.33,5.52,5.52,0,0,1-1.21-2.26,11.8,11.8,0,0,1-.39-3.23V17.2h-2.43c-.28,0-.5-.18-.66-.53a5.08,5.08,0,0,1-.22-1.79c0-.44,0-.81,0-1.11a3.18,3.18,0,0,1,.17-.72.8.8,0,0,1,.29-.37.68.68,0,0,1,.4-.12h2.4V8a.76.76,0,0,1,.13-.41.93.93,0,0,1,.45-.3,3.41,3.41,0,0,1,.89-.19c.37,0,.83,0,1.38,0s1,0,1.39,0a3.24,3.24,0,0,1,.88.19,1,1,0,0,1,.45.3.7.7,0,0,1,.14.41v4.52h4.41a.65.65,0,0,1,.39.12.8.8,0,0,1,.29.37,3.18,3.18,0,0,1,.17.72,8.61,8.61,0,0,1,.06,1.11,5,5,0,0,1-.23,1.79.72.72,0,0,1-.66.53h-4.43v9.52a4.71,4.71,0,0,0,.52,2.49,2,2,0,0,0,1.86.83A4,4,0,0,0,135,30a4.64,4.64,0,0,0,.65-.18l.48-.18a.8.8,0,0,1,.35-.08.42.42,0,0,1,.26.08.49.49,0,0,1,.19.31,4.61,4.61,0,0,1,.13.65A7.43,7.43,0,0,1,137.13,31.61Z"/><path class="cls-1" d="M159.42,22.88a2.23,2.23,0,0,1-.47,1.55,1.68,1.68,0,0,1-1.28.5H145.33a8.63,8.63,0,0,0,.3,2.35,4.51,4.51,0,0,0,1,1.79,4.31,4.31,0,0,0,1.73,1.13,7.57,7.57,0,0,0,2.53.38,14.71,14.71,0,0,0,2.64-.21,20.17,20.17,0,0,0,2-.48c.56-.17,1-.33,1.38-.48a2.6,2.6,0,0,1,.88-.21.65.65,0,0,1,.35.08.54.54,0,0,1,.22.28,2.18,2.18,0,0,1,.13.58c0,.25,0,.56,0,.94s0,.62,0,.86,0,.43-.07.6a1.3,1.3,0,0,1-.14.42,2.19,2.19,0,0,1-.23.33,2.94,2.94,0,0,1-.81.43,12.55,12.55,0,0,1-1.68.53,21.57,21.57,0,0,1-2.34.46,19.34,19.34,0,0,1-2.82.19,15.09,15.09,0,0,1-4.74-.68,8.39,8.39,0,0,1-3.39-2.07,8.6,8.6,0,0,1-2-3.5,16.33,16.33,0,0,1-.67-4.95,15.79,15.79,0,0,1,.71-4.88,10.2,10.2,0,0,1,2-3.68,8.83,8.83,0,0,1,3.26-2.3,12.54,12.54,0,0,1,8.68-.05,7.84,7.84,0,0,1,3,2.08,8.42,8.42,0,0,1,1.7,3.15,13.81,13.81,0,0,1,.55,3.95Zm-5.55-1.64a5.91,5.91,0,0,0-1-3.78,3.74,3.74,0,0,0-3.2-1.37,4,4,0,0,0-1.89.41,3.8,3.8,0,0,0-1.34,1.1,5,5,0,0,0-.82,1.63,8.12,8.12,0,0,0-.33,2Z"/><path class="cls-1" d="M177.14,15.22a12.38,12.38,0,0,1,0,1.34,4.26,4.26,0,0,1-.13.82.75.75,0,0,1-.24.41.57.57,0,0,1-.38.11,1.05,1.05,0,0,1-.4-.08l-.52-.17c-.18-.06-.39-.11-.62-.17a3.52,3.52,0,0,0-.75-.08,2.45,2.45,0,0,0-1,.2,4.09,4.09,0,0,0-1,.6A7.41,7.41,0,0,0,171,19.29,17.45,17.45,0,0,0,169.85,21V33.61a.6.6,0,0,1-.14.39,1,1,0,0,1-.47.29,4.61,4.61,0,0,1-.87.17,13.53,13.53,0,0,1-1.39,0,13.32,13.32,0,0,1-1.38,0,4.57,4.57,0,0,1-.88-.17,1,1,0,0,1-.46-.29.6.6,0,0,1-.14-.39V13.34a.75.75,0,0,1,.11-.4.87.87,0,0,1,.41-.28,3.15,3.15,0,0,1,.76-.18c.31,0,.7-.05,1.17-.05s.89,0,1.21.05a2.66,2.66,0,0,1,.74.18.79.79,0,0,1,.37.28.68.68,0,0,1,.12.4v2.52a16.66,16.66,0,0,1,1.5-1.88,8,8,0,0,1,1.34-1.17,4.44,4.44,0,0,1,1.27-.6,5,5,0,0,1,1.27-.17,4.88,4.88,0,0,1,.64,0,6.31,6.31,0,0,1,.7.11,4.14,4.14,0,0,1,.64.18,1.14,1.14,0,0,1,.39.22.64.64,0,0,1,.19.25,2.64,2.64,0,0,1,.1.37,6.68,6.68,0,0,1,.07.72C177.13,14.25,177.14,14.68,177.14,15.22Z"/><path class="cls-1" d="M193.68,15.22c0,.55,0,1,0,1.34a4.15,4.15,0,0,1-.14.82.75.75,0,0,1-.24.41.56.56,0,0,1-.37.11,1.1,1.1,0,0,1-.41-.08l-.51-.17-.63-.17a3.52,3.52,0,0,0-.75-.08,2.49,2.49,0,0,0-1,.2,4.09,4.09,0,0,0-1,.6,7.41,7.41,0,0,0-1.07,1.09A17.45,17.45,0,0,0,186.39,21V33.61a.6.6,0,0,1-.14.39,1,1,0,0,1-.46.29,4.73,4.73,0,0,1-.88.17,19.21,19.21,0,0,1-2.77,0,4.73,4.73,0,0,1-.88-.17,1,1,0,0,1-.46-.29.6.6,0,0,1-.14-.39V13.34a.68.68,0,0,1,.12-.4.79.79,0,0,1,.4-.28,3.13,3.13,0,0,1,.77-.18c.31,0,.7-.05,1.17-.05s.88,0,1.2.05a2.66,2.66,0,0,1,.74.18.79.79,0,0,1,.37.28.68.68,0,0,1,.12.4v2.52a16.66,16.66,0,0,1,1.5-1.88,8.47,8.47,0,0,1,1.34-1.17,4.57,4.57,0,0,1,1.27-.6,5,5,0,0,1,1.27-.17,4.88,4.88,0,0,1,.64,0,6,6,0,0,1,.7.11,3.84,3.84,0,0,1,.64.18,1.32,1.32,0,0,1,.4.22.72.72,0,0,1,.18.25,1.73,1.73,0,0,1,.1.37,6.68,6.68,0,0,1,.07.72C193.67,14.25,193.68,14.68,193.68,15.22Z"/><path class="cls-1" d="M213.45,33.67a.57.57,0,0,1-.23.5,1.43,1.43,0,0,1-.71.26,13.45,13.45,0,0,1-2.93,0,1.2,1.2,0,0,1-.66-.26.64.64,0,0,1-.2-.5V32.06a9.21,9.21,0,0,1-2.85,2.09,8.27,8.27,0,0,1-3.55.75,10,10,0,0,1-3-.42A6.74,6.74,0,0,1,197,33.23a5.54,5.54,0,0,1-1.53-2.06,6.85,6.85,0,0,1-.55-2.86,6.4,6.4,0,0,1,.7-3.08,5.67,5.67,0,0,1,2.06-2.16,10.71,10.71,0,0,1,3.42-1.26,24.72,24.72,0,0,1,4.75-.41h2V20.18a6.8,6.8,0,0,0-.19-1.67,2.89,2.89,0,0,0-.64-1.2,2.71,2.71,0,0,0-1.18-.7,6.33,6.33,0,0,0-1.83-.23,9.48,9.48,0,0,0-2.56.32,15.73,15.73,0,0,0-2,.7c-.57.26-1,.5-1.44.71a2.16,2.16,0,0,1-.94.32.68.68,0,0,1-.44-.16,1.15,1.15,0,0,1-.32-.46,3,3,0,0,1-.2-.72,7.06,7.06,0,0,1-.06-1,4.13,4.13,0,0,1,.11-1.11,1.7,1.7,0,0,1,.43-.74,4.29,4.29,0,0,1,1.11-.73,13.75,13.75,0,0,1,1.87-.74,17.73,17.73,0,0,1,2.33-.55,14.71,14.71,0,0,1,2.6-.22,15.57,15.57,0,0,1,4.08.47,6.91,6.91,0,0,1,2.78,1.43A5.47,5.47,0,0,1,213,16.43a11.7,11.7,0,0,1,.5,3.61ZM207.84,25h-2.18a11.44,11.44,0,0,0-2.37.21,4.48,4.48,0,0,0-1.59.61,2.47,2.47,0,0,0-.89,1,3,3,0,0,0-.29,1.33,2.56,2.56,0,0,0,.81,2,3.25,3.25,0,0,0,2.24.73,4.17,4.17,0,0,0,2.21-.62,9.07,9.07,0,0,0,2.06-1.79Z"/><path class="cls-1" d="M66.42,50.71a.17.17,0,0,1,0,.1.15.15,0,0,1-.1.07l-.2,0-.31,0-.31,0a.81.81,0,0,1-.21,0,.15.15,0,0,1-.1-.07.17.17,0,0,1,0-.1V41.36a.17.17,0,0,1,0-.1.27.27,0,0,1,.12-.07l.2,0,.3,0,.31,0,.2,0a.2.2,0,0,1,.1.07.17.17,0,0,1,0,.1Z"/><path class="cls-1" d="M85,50.37a.71.71,0,0,1,0,.26.58.58,0,0,1-.14.17.52.52,0,0,1-.18.1.69.69,0,0,1-.2,0H84a1.23,1.23,0,0,1-.35,0,.62.62,0,0,1-.29-.15,1.54,1.54,0,0,1-.27-.29A4.64,4.64,0,0,1,82.8,50l-3-5.54c-.16-.29-.31-.59-.47-.9s-.31-.62-.44-.91h0c0,.36,0,.73,0,1.1s0,.75,0,1.12v5.88a.19.19,0,0,1,0,.1.18.18,0,0,1-.11.07.74.74,0,0,1-.19,0l-.32,0-.31,0-.2,0a.18.18,0,0,1-.1-.07.19.19,0,0,1,0-.1v-9a.51.51,0,0,1,.17-.43.58.58,0,0,1,.37-.13h.64a1.43,1.43,0,0,1,.38,0,.66.66,0,0,1,.27.12,1.06,1.06,0,0,1,.23.24,3,3,0,0,1,.24.39l2.28,4.27.41.77.38.73.35.71.36.7h0c0-.39,0-.81,0-1.23s0-.85,0-1.24V41.39a.17.17,0,0,1,0-.1.31.31,0,0,1,.11-.08l.2-.05h.62a.72.72,0,0,1,.2.05.21.21,0,0,1,.1.08.13.13,0,0,1,0,.1Z"/><path class="cls-1" d="M103.52,42.49a1.85,1.85,0,0,1,0,.25.74.74,0,0,1-.05.19.26.26,0,0,1-.07.1.17.17,0,0,1-.1,0,.66.66,0,0,1-.3-.15,5.18,5.18,0,0,0-.56-.31,5.44,5.44,0,0,0-.85-.32,4.46,4.46,0,0,0-1.17-.14,3.46,3.46,0,0,0-1.44.29,3.17,3.17,0,0,0-1.09.82,3.66,3.66,0,0,0-.68,1.23A4.84,4.84,0,0,0,97,46a4.93,4.93,0,0,0,.26,1.65,3.65,3.65,0,0,0,.72,1.22,3,3,0,0,0,1.1.75,3.51,3.51,0,0,0,1.39.26,4.2,4.2,0,0,0,.92-.11,3.33,3.33,0,0,0,.86-.33V46.64H100a.2.2,0,0,1-.19-.13,1,1,0,0,1-.06-.4,1.7,1.7,0,0,1,0-.24.58.58,0,0,1,.05-.17.24.24,0,0,1,.08-.09.2.2,0,0,1,.11,0H103a.51.51,0,0,1,.17,0,.6.6,0,0,1,.15.09.37.37,0,0,1,.1.16.61.61,0,0,1,0,.24v3.71a.71.71,0,0,1-.07.34.54.54,0,0,1-.28.25,5.79,5.79,0,0,1-.57.24,5.33,5.33,0,0,1-.71.22,7.22,7.22,0,0,1-1.49.18,5.59,5.59,0,0,1-2-.35,4.12,4.12,0,0,1-1.5-1,4.25,4.25,0,0,1-.93-1.55,5.8,5.8,0,0,1-.33-2A6,6,0,0,1,96,44a4.56,4.56,0,0,1,1-1.6,4.18,4.18,0,0,1,1.53-1,5.2,5.2,0,0,1,2-.37,5.85,5.85,0,0,1,1,.1,7,7,0,0,1,.86.23,3,3,0,0,1,.64.29,1.41,1.41,0,0,1,.36.25.52.52,0,0,1,.14.22A1.77,1.77,0,0,1,103.52,42.49Z"/><path class="cls-1" d="M120,50.37a1.77,1.77,0,0,1,0,.24.84.84,0,0,1,0,.17.38.38,0,0,1-.09.09.2.2,0,0,1-.11,0H115a.52.52,0,0,1-.33-.11.5.5,0,0,1-.15-.41V41.7a.48.48,0,0,1,.15-.41.54.54,0,0,1,.33-.12h4.62a.2.2,0,0,1,.11,0,.21.21,0,0,1,.08.1,1.22,1.22,0,0,1,.05.17,1.57,1.57,0,0,1,0,.25,1.66,1.66,0,0,1,0,.24,1.56,1.56,0,0,1-.05.16.24.24,0,0,1-.08.09.2.2,0,0,1-.11,0h-3.81V45.3h3.27a.23.23,0,0,1,.11,0,.39.39,0,0,1,.08.1.5.5,0,0,1,0,.16,1.93,1.93,0,0,1,0,.25,1.55,1.55,0,0,1,0,.23.5.5,0,0,1,0,.16.24.24,0,0,1-.08.09.22.22,0,0,1-.11,0h-3.27v3.49h3.86a.2.2,0,0,1,.11,0,.38.38,0,0,1,.09.09.58.58,0,0,1,0,.17A1.85,1.85,0,0,1,120,50.37Z"/><path class="cls-1" d="M138.07,50.37a.71.71,0,0,1,0,.26.58.58,0,0,1-.14.17.52.52,0,0,1-.18.1.69.69,0,0,1-.2,0h-.43a1.23,1.23,0,0,1-.35,0,.62.62,0,0,1-.29-.15,1.54,1.54,0,0,1-.27-.29,4.64,4.64,0,0,1-.29-.48l-3-5.54c-.16-.29-.31-.59-.47-.9s-.3-.62-.44-.91h0l0,1.1v7a.19.19,0,0,1,0,.1.15.15,0,0,1-.1.07,1,1,0,0,1-.2,0l-.32,0-.31,0-.2,0a.18.18,0,0,1-.1-.07.19.19,0,0,1,0-.1v-9a.51.51,0,0,1,.17-.43.6.6,0,0,1,.37-.13h.64a1.38,1.38,0,0,1,.38,0,.66.66,0,0,1,.27.12,1.06,1.06,0,0,1,.23.24A3,3,0,0,1,133,42l2.28,4.27.41.77.38.73.36.71c.11.23.23.47.35.7h0c0-.39,0-.81,0-1.23s0-.85,0-1.24V41.39a.17.17,0,0,1,0-.1.31.31,0,0,1,.11-.08l.2-.05h.62a.72.72,0,0,1,.2.05.31.31,0,0,1,.11.08.17.17,0,0,1,0,.1Z"/><path class="cls-1" d="M150.58,50.71a.17.17,0,0,1,0,.1.18.18,0,0,1-.11.07.72.72,0,0,1-.2,0l-.31,0-.31,0a.83.83,0,0,1-.2,0,.18.18,0,0,1-.11-.07.17.17,0,0,1,0-.1V41.36a.18.18,0,0,1,0-.1.23.23,0,0,1,.11-.07l.2,0,.3,0,.31,0,.2,0a.23.23,0,0,1,.11.07.17.17,0,0,1,0,.1Z"/><path class="cls-1" d="M167.21,50.37a1.66,1.66,0,0,1,0,.24.48.48,0,0,1-.05.17.24.24,0,0,1-.08.09.23.23,0,0,1-.11,0h-4.68a.5.5,0,0,1-.32-.11.48.48,0,0,1-.16-.41V41.7a.45.45,0,0,1,.16-.41.51.51,0,0,1,.32-.12h4.62a.2.2,0,0,1,.11,0,.16.16,0,0,1,.08.1.58.58,0,0,1,0,.17,1.57,1.57,0,0,1,0,.25,1.66,1.66,0,0,1,0,.24.6.6,0,0,1,0,.16.18.18,0,0,1-.08.09.2.2,0,0,1-.11,0h-3.8V45.3h3.26a.2.2,0,0,1,.11,0,.39.39,0,0,1,.08.1.34.34,0,0,1,.05.16,1.81,1.81,0,0,1,0,.25,1.4,1.4,0,0,1,0,.23.34.34,0,0,1-.05.16.24.24,0,0,1-.08.09.2.2,0,0,1-.11,0h-3.26v3.49H167a.23.23,0,0,1,.11,0,.24.24,0,0,1,.08.09.38.38,0,0,1,.05.17A1.69,1.69,0,0,1,167.21,50.37Z"/><path class="cls-1" d="M184.44,50.71a.17.17,0,0,1,0,.1.15.15,0,0,1-.09.08l-.22,0-.36,0-.32,0a.53.53,0,0,1-.2,0,.24.24,0,0,1-.11-.09.52.52,0,0,1-.07-.15l-.9-2.29a6,6,0,0,0-.33-.72,2.16,2.16,0,0,0-.4-.57,1.77,1.77,0,0,0-.55-.37,2.11,2.11,0,0,0-.76-.13h-.86v4.15a.13.13,0,0,1,0,.1.15.15,0,0,1-.1.07.72.72,0,0,1-.2,0l-.31,0-.31,0a.83.83,0,0,1-.2,0,.18.18,0,0,1-.11-.07.17.17,0,0,1,0-.1v-9a.48.48,0,0,1,.16-.41.51.51,0,0,1,.32-.12h2.07l.62,0,.44,0a3.49,3.49,0,0,1,1,.31,2.5,2.5,0,0,1,.73.53,2.14,2.14,0,0,1,.44.74,2.73,2.73,0,0,1,.15.92,2.66,2.66,0,0,1-.14.88,1.94,1.94,0,0,1-.38.69,2.44,2.44,0,0,1-.59.51,3.66,3.66,0,0,1-.77.37,1.73,1.73,0,0,1,.43.27,2.23,2.23,0,0,1,.37.38,4.22,4.22,0,0,1,.32.52q.15.3.3.66l.87,2.15c.07.18.12.31.14.38A.67.67,0,0,1,184.44,50.71Zm-1.95-6.84a1.78,1.78,0,0,0-.26-1,1.41,1.41,0,0,0-.86-.56,1.65,1.65,0,0,0-.42-.08,5.54,5.54,0,0,0-.62,0h-1.09v3.28h1.26a2.55,2.55,0,0,0,.88-.13,1.73,1.73,0,0,0,.63-.34,1.47,1.47,0,0,0,.36-.53A1.71,1.71,0,0,0,182.49,43.87Z"/><path class="cls-1" d="M196.23,50.71a.17.17,0,0,1,0,.1.15.15,0,0,1-.11.07.64.64,0,0,1-.19,0l-.32,0-.3,0a.81.81,0,0,1-.21,0,.15.15,0,0,1-.1-.07.17.17,0,0,1,0-.1V41.36a.17.17,0,0,1,0-.1.23.23,0,0,1,.11-.07l.21,0,.29,0,.32,0,.19,0a.19.19,0,0,1,.11.07.17.17,0,0,1,0,.1Z"/><path class="cls-1" d="M214.74,50.44a.83.83,0,0,1,.06.27.21.21,0,0,1-.06.16.39.39,0,0,1-.2.06l-.37,0h-.37a.87.87,0,0,1-.21,0,.3.3,0,0,1-.11-.07l-.06-.11-.84-2.37h-4l-.8,2.34-.06.11a.31.31,0,0,1-.11.08.48.48,0,0,1-.2,0L207,51l-.36,0a.42.42,0,0,1-.2-.07.21.21,0,0,1-.05-.16.84.84,0,0,1,.06-.26l3.27-9a.41.41,0,0,1,.08-.13.27.27,0,0,1,.14-.08.75.75,0,0,1,.24,0l.37,0,.4,0a.89.89,0,0,1,.26,0,.53.53,0,0,1,.15.08.64.64,0,0,1,.08.14Zm-4.19-8h0l-1.68,4.86h3.39Z"/><path class="cls-1" d="M51.63,0H2.16A2.16,2.16,0,0,0,0,2.16V51.63a2.16,2.16,0,0,0,2.16,2.16H51.63a2.16,2.16,0,0,0,2.16-2.16V2.16A2.16,2.16,0,0,0,51.63,0ZM5,4.84H28.84V13A11.51,11.51,0,0,1,17.32,24.47H5Zm23.83,44.1H5V29.31H17.32A11.52,11.52,0,0,1,28.84,40.83Zm19.94,0H34.64V40.83c0-4.95-1.2-10.64-6.69-11.52h9.32A11.51,11.51,0,0,1,48.78,40.83Zm0-36A11.51,11.51,0,0,1,37.27,24.47H28c5.49-.87,6.69-6.56,6.69-11.51V4.84H48.78Z"/></svg>