<svg id="Capa_1" data-name="Capa 1" xmlns="http://www.w3.org/2000/svg" viewBox="0 0 293.61 54.61"><defs><style>.cls-1{fill:#fff;}</style></defs><path class="cls-1" d="M39.1,31c3.32,2.9,7.81,1.87,10.43-.81a7.09,7.09,0,0,0,2-7.28l4.77-4.77A15.54,15.54,0,0,1,57.3,27a13.58,13.58,0,0,1-3.85,7.24A14.57,14.57,0,0,1,32.78,13.67,14,14,0,0,1,43,9.39a14.85,14.85,0,0,1,11.73,6Zm7.53-14.59a7.56,7.56,0,0,0-9.9,1.13c-3.42,3.43-2.82,7.77-1.09,9.86Z"/><path class="cls-1" d="M67.91,23.24l-9.25-13h7.9l5.34,8.44,5.35-8.44h7.8l-9.2,13L86.1,37.68h-8L71.9,28.24l-6.19,9.44H57.76Z"/><path class="cls-1" d="M86.34,23.89a14.7,14.7,0,0,1,29.39.05,14.7,14.7,0,0,1-29.39,0Zm6.55.1a8.12,8.12,0,1,0,16.24,0,8.12,8.12,0,1,0-16.24,0Z"/><path class="cls-1" d="M148.81,34.43c0,4.5-.85,7.4-2.55,9.7-2.35,3.14-6.95,5.64-12.59,5.64-8.55,0-12.65-5.09-13.65-9.34h7.6a6.18,6.18,0,0,0,2.85,2.8,7.85,7.85,0,0,0,3.6,1,7.94,7.94,0,0,0,8.14-8.25v-2.3a9.78,9.78,0,0,1-8.89,4.9c-7.9,0-14-6-14-14.44,0-8.95,6.4-14.64,14-14.64,3.94,0,7.34,1.79,8.89,4.49V10.25h6.6ZM125.87,23.94a8.11,8.11,0,0,0,8.2,8.44A7.82,7.82,0,0,0,139.91,30a8.38,8.38,0,0,0,2.35-5.84,9.26,9.26,0,0,0-2-5.9,7.53,7.53,0,0,0-6.19-2.75,8.14,8.14,0,0,0-8.2,8.35Z"/><path class="cls-1" d="M155.1,10.25h6.2v3.59c1.2-2.45,3.45-4.39,7.59-4.44V16h-.3c-4.59,0-6.94,2.15-6.94,6.9V37.68H155.1Z"/><path class="cls-1" d="M199.57,37.68H193v-4c-1.75,3.2-5.4,4.8-9.25,4.8-8.79,0-13.94-6.85-13.94-14.59,0-8.65,6.25-14.54,13.94-14.54,5,0,8.05,2.64,9.25,4.84v-4h6.54ZM176.39,24.09a8.23,8.23,0,0,0,8.34,8.34A7.78,7.78,0,0,0,192,28a9.42,9.42,0,0,0,1.05-3.85,8.55,8.55,0,0,0-.75-3.85,8.05,8.05,0,0,0-7.65-4.85c-5.29,0-8.29,4.3-8.29,8.55ZM185.61.19l4.68.09-9,7.9V4.5Z"/><polygon class="cls-1" points="220.46 15.29 220.46 15.78 220.46 37.68 227.01 37.68 227.01 10.24 220.46 10.24 220.46 15.29"/><path class="cls-1" d="M217.36,10.25H213V8.9c0-3.85,2.7-3.85,4.35-3.85V0c-4.7.05-10.89.55-10.89,8.7v1.55h-3.4v5h3.4V37.68H213V15.29h4.35Z"/><polygon class="cls-1" points="220.46 0.7 220.46 5.05 220.46 6.55 227.01 6.55 227.01 0.7 220.46 0.7"/><path class="cls-1" d="M259.2,16.42a14.36,14.36,0,0,1-2.29,17.63,14.57,14.57,0,0,1-20.78-20.42,14.39,14.39,0,0,1,18-2.34L249.34,16a7.69,7.69,0,0,0-8.72,1.73,7.75,7.75,0,0,0-2.48,5.8,9,9,0,0,0,2.72,5.9c3.5,3.5,8.41,3.53,11.7.24a7.77,7.77,0,0,0,1.91-8.55Z"/><path class="cls-1" d="M264.23,23.89a14.69,14.69,0,0,1,29.38.05,14.69,14.69,0,0,1-29.38,0Zm6.55.1a8.12,8.12,0,1,0,16.24,0,8.12,8.12,0,1,0-16.24,0Z"/><path class="cls-1" d="M14.27,10.25H9.94V8.9c0-3.85,2.7-3.85,4.35-3.85V0C9.59.05,3.4.55,3.4,8.7v1.55H0v5H3.4V37.68H9.94V15.29h4.33Z"/><polygon class="cls-1" points="17.39 0.75 17.39 6.63 17.39 10.24 17.39 15.29 17.39 15.79 17.39 37.68 23.94 37.68 23.94 0.75 17.39 0.75"/><path class="cls-1" d="M75.43,51.63l1.34.16a3.25,3.25,0,0,1-1.13,2.07,3.38,3.38,0,0,1-2.23.75,3.55,3.55,0,0,1-2.67-1,4,4,0,0,1-1-2.95,5.11,5.11,0,0,1,.44-2.18,2.9,2.9,0,0,1,1.32-1.4,4.07,4.07,0,0,1,1.93-.46,3.49,3.49,0,0,1,2.15.63A2.82,2.82,0,0,1,76.64,49l-1.33.19a2.11,2.11,0,0,0-.67-1.16,1.81,1.81,0,0,0-1.17-.39,2.17,2.17,0,0,0-1.68.7,3.25,3.25,0,0,0-.65,2.23,3.38,3.38,0,0,0,.62,2.25,2.08,2.08,0,0,0,1.63.7,2,2,0,0,0,1.35-.47A2.28,2.28,0,0,0,75.43,51.63Z"/><path class="cls-1" d="M77.91,54.44V43.84h1.37v10.6Z"/><path class="cls-1" d="M81.42,45.33V43.84h1.37v1.49Zm0,9.11V46.76h1.37v7.68Z"/><path class="cls-1" d="M90.15,51.63l1.34.16a3.2,3.2,0,0,1-1.13,2.07,3.38,3.38,0,0,1-2.23.75,3.55,3.55,0,0,1-2.67-1,4,4,0,0,1-1-2.95,5.11,5.11,0,0,1,.44-2.18,2.94,2.94,0,0,1,1.32-1.4,4.07,4.07,0,0,1,1.93-.46,3.49,3.49,0,0,1,2.15.63A2.82,2.82,0,0,1,91.36,49L90,49.21a2.05,2.05,0,0,0-.67-1.16,1.8,1.8,0,0,0-1.17-.39,2.17,2.17,0,0,0-1.68.7,3.25,3.25,0,0,0-.65,2.23,3.38,3.38,0,0,0,.62,2.25,2.08,2.08,0,0,0,1.63.7,2,2,0,0,0,1.35-.47A2.28,2.28,0,0,0,90.15,51.63Z"/><path class="cls-1" d="M92.67,54.44V43.84H94v3.8a3.13,3.13,0,0,1,2.42-1,3.45,3.45,0,0,1,1.56.33,2.06,2.06,0,0,1,.94.93,4.1,4.1,0,0,1,.29,1.72v4.87H97.88V49.57a1.94,1.94,0,0,0-.45-1.42,1.71,1.71,0,0,0-1.26-.44A2.31,2.31,0,0,0,95,48a1.77,1.77,0,0,0-.77.81A3.64,3.64,0,0,0,94,50.24v4.2Z"/><path class="cls-1" d="M106.87,52l1.41.16A3.2,3.2,0,0,1,107,54a4.38,4.38,0,0,1-5.12-.38,3.93,3.93,0,0,1-1-2.91,4.1,4.1,0,0,1,1.05-3,3.62,3.62,0,0,1,2.72-1.07,3.57,3.57,0,0,1,2.65,1,4,4,0,0,1,1,2.95c0,.08,0,.2,0,.35h-6a2.87,2.87,0,0,0,.76,1.94,2.28,2.28,0,0,0,1.69.67,2.15,2.15,0,0,0,1.28-.37A2.48,2.48,0,0,0,106.87,52Zm-4.5-2.11h4.51a2.54,2.54,0,0,0-.51-1.45,2.17,2.17,0,0,0-1.7-.75,2.25,2.25,0,0,0-1.59.6A2.32,2.32,0,0,0,102.37,49.86Zm1.48-4,1-2h1.8l-1.68,2Z"/><path class="cls-1" d="M109.46,52.15l1.35-.21a1.77,1.77,0,0,0,.64,1.19,2.25,2.25,0,0,0,1.46.41,2.27,2.27,0,0,0,1.4-.36,1.09,1.09,0,0,0,.45-.86.77.77,0,0,0-.4-.69,5.68,5.68,0,0,0-1.4-.44,13.58,13.58,0,0,1-2.09-.63,2,2,0,0,1-.88-.73,1.88,1.88,0,0,1-.3-1,1.94,1.94,0,0,1,.24-.95,2.16,2.16,0,0,1,.68-.73,3,3,0,0,1,.87-.38,4.49,4.49,0,0,1,1.18-.15,4.73,4.73,0,0,1,1.67.26,2.17,2.17,0,0,1,1.06.7,2.76,2.76,0,0,1,.48,1.19l-1.34.18A1.37,1.37,0,0,0,114,48a2,2,0,0,0-1.24-.33,2.41,2.41,0,0,0-1.35.29.85.85,0,0,0-.4.7.68.68,0,0,0,.17.45,1.16,1.16,0,0,0,.52.35c.14,0,.54.16,1.21.33a17.15,17.15,0,0,1,2,.61,2,2,0,0,1,.9.68,1.83,1.83,0,0,1,.33,1.11,2.08,2.08,0,0,1-.4,1.23,2.61,2.61,0,0,1-1.15.89,4.38,4.38,0,0,1-1.71.31,3.9,3.9,0,0,1-2.4-.62A2.84,2.84,0,0,1,109.46,52.15Z"/><path class="cls-1" d="M190.91,54.44v-1a2.55,2.55,0,0,1-2.26,1.14,3.3,3.3,0,0,1-3-1.92,4.61,4.61,0,0,1-.45-2.08,5.23,5.23,0,0,1,.4-2.09,3.18,3.18,0,0,1,1.21-1.44,3.39,3.39,0,0,1,1.81-.49,2.76,2.76,0,0,1,1.3.29,2.68,2.68,0,0,1,.93.76v-3.8h1.36v10.6Zm-4.33-3.83a3.23,3.23,0,0,0,.65,2.2,2,2,0,0,0,1.55.73,1.94,1.94,0,0,0,1.52-.7,3.07,3.07,0,0,0,.63-2.12,3.46,3.46,0,0,0-.64-2.32,2,2,0,0,0-1.57-.74,2,2,0,0,0-1.53.71A3.37,3.37,0,0,0,186.58,50.61Z"/><path class="cls-1" d="M194.34,45.33V43.84h1.37v1.49Zm0,9.11V46.76h1.37v7.68Z"/><path class="cls-1" d="M197.25,52.15l1.35-.21a1.77,1.77,0,0,0,.64,1.19,2.85,2.85,0,0,0,2.86,0,1.1,1.1,0,0,0,.46-.86.77.77,0,0,0-.41-.69,5.53,5.53,0,0,0-1.4-.44,14,14,0,0,1-2.09-.63,2,2,0,0,1-.88-.73,1.88,1.88,0,0,1-.3-1,1.85,1.85,0,0,1,.25-.95,2.13,2.13,0,0,1,.67-.73,3,3,0,0,1,.87-.38,4.49,4.49,0,0,1,1.18-.15,4.69,4.69,0,0,1,1.67.26,2.25,2.25,0,0,1,1.07.7,2.75,2.75,0,0,1,.47,1.19l-1.34.18a1.37,1.37,0,0,0-.53-.93,2,2,0,0,0-1.24-.33,2.35,2.35,0,0,0-1.34.29.86.86,0,0,0-.41.7.68.68,0,0,0,.17.45,1.2,1.2,0,0,0,.53.35c.13,0,.54.16,1.21.33a17.45,17.45,0,0,1,2,.61,2,2,0,0,1,.91.68,1.89,1.89,0,0,1,.32,1.11,2.08,2.08,0,0,1-.4,1.23,2.55,2.55,0,0,1-1.15.89,4.37,4.37,0,0,1-1.7.31A3.94,3.94,0,0,1,198.3,54,2.84,2.84,0,0,1,197.25,52.15Z"/><path class="cls-1" d="M211.13,52l1.41.16A3.2,3.2,0,0,1,211.3,54a4.4,4.4,0,0,1-5.13-.38,4,4,0,0,1-1-2.91,4.1,4.1,0,0,1,1.05-3,3.61,3.61,0,0,1,2.72-1.07,3.57,3.57,0,0,1,2.65,1,4,4,0,0,1,1,2.95c0,.08,0,.2,0,.35h-6a2.87,2.87,0,0,0,.75,1.94,2.32,2.32,0,0,0,1.7.67,2.15,2.15,0,0,0,1.28-.37A2.48,2.48,0,0,0,211.13,52Zm-4.5-2.11h4.51a2.47,2.47,0,0,0-.52-1.45,2.13,2.13,0,0,0-1.69-.75,2.25,2.25,0,0,0-1.59.6A2.28,2.28,0,0,0,206.63,49.86Z"/><path class="cls-1" d="M214.26,54.44V46.76h1.24v1.09a3,3,0,0,1,2.57-1.26,3.47,3.47,0,0,1,1.34.25,2.09,2.09,0,0,1,.92.65,2.47,2.47,0,0,1,.42,1,6.27,6.27,0,0,1,.08,1.27v4.72h-1.37V49.77a3.26,3.26,0,0,0-.16-1.19,1.33,1.33,0,0,0-.57-.63,1.84,1.84,0,0,0-.95-.24,2.28,2.28,0,0,0-1.51.53,2.5,2.5,0,0,0-.64,2v4.19Zm1-8.82a1.61,1.61,0,0,1,.43-1.2,1.47,1.47,0,0,1,1.11-.44,3.22,3.22,0,0,1,1.29.39,1.84,1.84,0,0,0,.72.21.53.53,0,0,0,.37-.12.92.92,0,0,0,.18-.51h1a1.71,1.71,0,0,1-.44,1.24,1.4,1.4,0,0,1-1,.41,2.93,2.93,0,0,1-1.26-.4,1.82,1.82,0,0,0-.75-.26.57.57,0,0,0-.42.17.73.73,0,0,0-.16.51Z"/><path class="cls-1" d="M222.42,50.6a3.61,3.61,0,0,1,3.79-4,3.75,3.75,0,0,1,2.73,1A3.87,3.87,0,0,1,230,50.49a4.85,4.85,0,0,1-.47,2.33,3.27,3.27,0,0,1-1.36,1.32,4.08,4.08,0,0,1-2,.47,3.73,3.73,0,0,1-2.74-1A4,4,0,0,1,222.42,50.6Zm1.41,0a3.18,3.18,0,0,0,.68,2.21,2.34,2.34,0,0,0,3.4,0,3.27,3.27,0,0,0,.68-2.25,3.09,3.09,0,0,0-.68-2.16,2.33,2.33,0,0,0-3.4,0A3.18,3.18,0,0,0,223.83,50.6Z"/><path class="cls-1" d="M231.07,51.26V50h4.21v1.31Z"/><path class="cls-1" d="M242.07,51.63l1.34.16a3.2,3.2,0,0,1-1.13,2.07,3.38,3.38,0,0,1-2.23.75,3.55,3.55,0,0,1-2.67-1,4,4,0,0,1-1-2.95,5.11,5.11,0,0,1,.44-2.18,2.94,2.94,0,0,1,1.32-1.4,4.07,4.07,0,0,1,1.93-.46,3.47,3.47,0,0,1,2.15.63,2.88,2.88,0,0,1,1.08,1.8l-1.34.19a2.05,2.05,0,0,0-.67-1.16,1.8,1.8,0,0,0-1.17-.39,2.17,2.17,0,0,0-1.68.7,3.25,3.25,0,0,0-.65,2.23,3.32,3.32,0,0,0,.63,2.25,2.06,2.06,0,0,0,1.63.7,1.94,1.94,0,0,0,1.34-.47A2.28,2.28,0,0,0,242.07,51.63Z"/><path class="cls-1" d="M244.57,54.44V46.76h1.23v1.16a3.2,3.2,0,0,1,.88-1.07,1.52,1.52,0,0,1,.88-.26A2.73,2.73,0,0,1,249,47l-.47,1.2a2.1,2.1,0,0,0-1-.28,1.38,1.38,0,0,0-1.32,1,4.89,4.89,0,0,0-.23,1.52v4Z"/><path class="cls-1" d="M255.31,52l1.42.16A3.3,3.3,0,0,1,255.49,54a3.86,3.86,0,0,1-2.32.65,3.8,3.8,0,0,1-2.81-1,4,4,0,0,1-1-2.91,4.1,4.1,0,0,1,1.05-3,3.63,3.63,0,0,1,2.73-1.07,3.59,3.59,0,0,1,2.65,1,4.07,4.07,0,0,1,1,2.95v.35h-6a2.87,2.87,0,0,0,.75,1.94,2.28,2.28,0,0,0,1.69.67,2.2,2.2,0,0,0,1.29-.37A2.53,2.53,0,0,0,255.31,52Zm-4.5-2.11h4.52a2.54,2.54,0,0,0-.52-1.45,2.15,2.15,0,0,0-1.7-.75,2.25,2.25,0,0,0-1.59.6A2.36,2.36,0,0,0,250.81,49.86Z"/><path class="cls-1" d="M263.72,53.49a5.2,5.2,0,0,1-1.46.87,4.43,4.43,0,0,1-1.51.25A3.06,3.06,0,0,1,258.7,54a2,2,0,0,1-.72-1.58,2.07,2.07,0,0,1,.27-1,2.1,2.1,0,0,1,.71-.74,3.41,3.41,0,0,1,1-.43,10.94,10.94,0,0,1,1.22-.2,13.11,13.11,0,0,0,2.44-.44c0-.18,0-.3,0-.34a1.42,1.42,0,0,0-.39-1.13,2.4,2.4,0,0,0-1.56-.44,2.47,2.47,0,0,0-1.43.33,1.92,1.92,0,0,0-.68,1.13L258.22,49a3.1,3.1,0,0,1,.6-1.32,2.67,2.67,0,0,1,1.21-.77,5.7,5.7,0,0,1,1.84-.27,4.93,4.93,0,0,1,1.68.23,2.21,2.21,0,0,1,.95.58,2,2,0,0,1,.42.89,6.47,6.47,0,0,1,.07,1.2v1.73a17.1,17.1,0,0,0,.09,2.3,2.65,2.65,0,0,0,.35.92H264A2.52,2.52,0,0,1,263.72,53.49Zm-.11-2.91a10.26,10.26,0,0,1-2.24.5,4.79,4.79,0,0,0-1.19.26,1.18,1.18,0,0,0-.55.42,1.13,1.13,0,0,0-.19.62,1.09,1.09,0,0,0,.42.87,1.86,1.86,0,0,0,1.21.34,2.94,2.94,0,0,0,1.41-.33,2.08,2.08,0,0,0,.91-.9,3.08,3.08,0,0,0,.22-1.3Z"/><path class="cls-1" d="M272.39,51.63l1.35.16a3.25,3.25,0,0,1-1.13,2.07,3.4,3.4,0,0,1-2.23.75,3.55,3.55,0,0,1-2.67-1,4,4,0,0,1-1-2.95,5.11,5.11,0,0,1,.43-2.18,2.94,2.94,0,0,1,1.32-1.4,4.1,4.1,0,0,1,1.93-.46,3.5,3.5,0,0,1,2.16.63,2.91,2.91,0,0,1,1.07,1.8l-1.33.19a2.06,2.06,0,0,0-.68-1.16,1.79,1.79,0,0,0-1.16-.39,2.2,2.2,0,0,0-1.69.7,3.25,3.25,0,0,0-.64,2.23,3.38,3.38,0,0,0,.62,2.25,2.08,2.08,0,0,0,1.63.7,2,2,0,0,0,1.35-.47A2.23,2.23,0,0,0,272.39,51.63Z"/><path class="cls-1" d="M274.92,45.33V43.84h1.37v1.49Zm0,9.11V46.76h1.37v7.68Z"/><path class="cls-1" d="M277.87,50.6a3.85,3.85,0,0,1,1.24-3.16,3.91,3.91,0,0,1,2.55-.85,3.71,3.71,0,0,1,2.72,1,3.83,3.83,0,0,1,1.06,2.87,4.85,4.85,0,0,1-.47,2.33,3.21,3.21,0,0,1-1.36,1.32,4.07,4.07,0,0,1-1.95.47,3.73,3.73,0,0,1-2.75-1A4,4,0,0,1,277.87,50.6Zm1.4,0a3.18,3.18,0,0,0,.68,2.21,2.22,2.22,0,0,0,1.71.73,2.19,2.19,0,0,0,1.69-.73,3.27,3.27,0,0,0,.68-2.25,3.09,3.09,0,0,0-.68-2.16,2.21,2.21,0,0,0-1.69-.74,2.25,2.25,0,0,0-1.71.73A3.18,3.18,0,0,0,279.27,50.6Zm1.62-4.79,1-2h1.79l-1.67,2Z"/><path class="cls-1" d="M287,54.44V46.76h1.24v1.09a3,3,0,0,1,2.57-1.26,3.4,3.4,0,0,1,1.34.25,2,2,0,0,1,.92.65,2.48,2.48,0,0,1,.43,1,7.41,7.41,0,0,1,.07,1.27v4.72h-1.37V49.77a3.26,3.26,0,0,0-.16-1.19,1.26,1.26,0,0,0-.56-.63,1.85,1.85,0,0,0-1-.24,2.3,2.3,0,0,0-1.51.53,2.54,2.54,0,0,0-.63,2v4.19Z"/></svg>