<svg id="Capa_1" data-name="Capa 1" xmlns="http://www.w3.org/2000/svg" viewBox="0 0 70.87 70.87"><defs><style>.cls-1{fill:#e2e2e2;}</style></defs><path class="cls-1" d="M35.44,0A35.44,35.44,0,0,0,24.22,69.06c1.78.34,2.42-.76,2.42-1.71s0-3.06,0-6c-9.86,2.14-11.94-4.76-11.94-4.76-1.61-4.09-3.94-5.18-3.94-5.18-3.21-2.19.25-2.15.25-2.15,3.55.25,5.42,3.65,5.42,3.65,3.16,5.42,8.29,3.85,10.32,2.94A7.51,7.51,0,0,1,29,51.1c-7.86-.89-16.13-3.93-16.13-17.51a13.69,13.69,0,0,1,3.64-9.52,12.67,12.67,0,0,1,.31-9.38s3-.94,9.75,3.64a33.27,33.27,0,0,1,17.71,0C51,13.75,54,14.69,54,14.69a13,13,0,0,1,.35,9.38,13.77,13.77,0,0,1,3.62,9.52c0,13.61-8.28,16.61-16.16,17.47,1.24,1.07,2.39,3.25,2.39,6.56,0,4.74,0,8.56,0,9.71,0,.92.62,2,2.44,1.67A35.39,35.39,0,0,0,35.43,0Z"/></svg>