<svg id="Capa_1" data-name="Capa 1" xmlns="http://www.w3.org/2000/svg" viewBox="0 0 70.87 70.87"><defs><style>.cls-1{fill:#e2e2e2;}</style></defs><path class="cls-1" d="M39.41,30.89v-.08s0,.05-.06.08Z"/><path class="cls-1" d="M35.43,0A35.44,35.44,0,1,0,70.87,35.43,35.43,35.43,0,0,0,35.43,0ZM26.07,52.89H17.6V27.42h8.47ZM21.83,23.94h0a4.38,4.38,0,0,1-4.68-4.4c0-2.5,1.89-4.4,4.79-4.4a4.39,4.39,0,0,1,4.73,4.4C26.62,22,24.79,23.94,21.83,23.94Zm34.77,29H48.13V39.26c0-3.42-1.22-5.76-4.28-5.76a4.63,4.63,0,0,0-4.35,3.1,5.9,5.9,0,0,0-.28,2.07V52.89H30.75s.11-23.08,0-25.47h8.47V31a8.41,8.41,0,0,1,7.63-4.21c5.58,0,9.75,3.64,9.75,11.46Z"/></svg>