<svg id="Capa_1" data-name="Capa 1" xmlns="http://www.w3.org/2000/svg" viewBox="0 0 213.45 48.11"><defs><style>.cls-1{fill:#e2e2e1;}</style></defs><path class="cls-1" d="M0,.74H25.22V5.45h-9.9V31.9H9.86V5.45H0Z"/><polygon class="cls-1" points="40.85 5.46 57.82 5.46 57.82 0.74 35.39 0.74 35.39 5.46 40.85 5.46"/><polygon class="cls-1" points="57.82 27.18 40.85 27.18 35.39 27.18 35.39 31.9 58.13 31.9 58.13 27.18 57.82 27.18"/><polygon class="cls-1" points="35.39 13.62 35.39 18.07 40.85 18.07 52.58 18.07 52.58 13.62 40.85 13.62 35.39 13.62"/><path class="cls-1" d="M90.47,10.65c-.92-3.58-3.23-6.2-7.77-6.2-6.68,0-9.47,5.89-9.47,11.87S76,28.19,82.7,28.19c4.85,0,7.51-3.62,7.94-8.16H96c-.44,7.46-5.72,12.61-13.27,12.61-9.34,0-14.92-7.42-14.92-16.32S73.36,0,82.7,0c7,0,12.57,3.93,13.22,10.65Z"/><path class="cls-1" d="M107.49.74h12.92c9.6,0,13.74,7,13.74,15.58S130,31.9,120.41,31.9H107.49ZM113,27.45h5.36c8.56,0,10.39-4.89,10.39-11.13S126.87,5.19,118.31,5.19H113Z"/><path class="cls-1" d="M153.88.74h5.81l12,31.16h-5.85l-2.92-8.25H150.48l-2.92,8.25h-5.63ZM152,19.5h9.52L156.81,6.11h-.13Z"/><path class="cls-1" d="M181.12.74h7.68l8.59,24.39h.09L205.86.74h7.59V31.9h-5.19v-24h-.09l-8.64,24H195l-8.64-24h-.09v24h-5.19Z"/><path class="cls-1" d="M108.36,39.38h3.54c2.63,0,3.76,1.91,3.76,4.26s-1.13,4.27-3.76,4.27h-3.54Zm1.5,7.31h1.47c2.34,0,2.84-1.34,2.84-3s-.5-3-2.84-3h-1.47Z"/><path class="cls-1" d="M117.59,39.38h1.49v8.53h-1.49Z"/><path class="cls-1" d="M129,47.91h-1l-.23-1a3.07,3.07,0,0,1-2.57,1.21c-2.55,0-4.08-2-4.08-4.47s1.53-4.47,4.08-4.47a3.36,3.36,0,0,1,3.66,2.92H127.4a2,2,0,0,0-2.2-1.7c-1.83,0-2.59,1.61-2.59,3.25s.76,3.25,2.59,3.25a2.16,2.16,0,0,0,2.39-2.34h-2.27V43.42H129Z"/><path class="cls-1" d="M131.18,39.38h1.5v8.53h-1.5Z"/><path class="cls-1" d="M134.29,39.38h6.91v1.29h-2.72v7.24H137V40.67h-2.7Z"/><path class="cls-1" d="M144,39.38h1.59l3.29,8.53h-1.6l-.81-2.26H143l-.8,2.26H140.7Zm-.53,5.13h2.61l-1.28-3.66h0Z"/><path class="cls-1" d="M150.26,39.38h1.49v7.24h4.34v1.29h-5.83Z"/><path class="cls-1" d="M163.92,39.38h1.59l3.29,8.53h-1.6l-.8-2.26H163l-.8,2.26h-1.54Zm-.52,5.13H166l-1.28-3.66h0Z"/><path class="cls-1" d="M177.65,47.91h-1l-.23-1a3.07,3.07,0,0,1-2.57,1.21c-2.56,0-4.09-2-4.09-4.47s1.53-4.47,4.09-4.47a3.36,3.36,0,0,1,3.66,2.92H176.1a2,2,0,0,0-2.2-1.7c-1.83,0-2.59,1.61-2.59,3.25s.76,3.25,2.59,3.25a2.16,2.16,0,0,0,2.39-2.34H174V43.42h3.63Z"/><path class="cls-1" d="M179.88,39.38H186v1.29h-4.65V42.9h4.3v1.22h-4.3v2.5h4.73v1.29h-6.22Z"/><path class="cls-1" d="M188,39.38h1.58l3.89,6.28h0V39.38h1.42v8.53h-1.58l-3.88-6.28h0v6.28H188Z"/><path class="cls-1" d="M203,42.09a2,2,0,0,0-2.13-1.7c-1.83,0-2.59,1.61-2.59,3.25s.76,3.25,2.59,3.25A2.18,2.18,0,0,0,203,44.66h1.46a3.49,3.49,0,0,1-3.63,3.45c-2.56,0-4.09-2-4.09-4.47s1.53-4.47,4.09-4.47a3.33,3.33,0,0,1,3.62,2.92Z"/><path class="cls-1" d="M208.69,44.56l-3.21-5.18h1.74l2.25,3.82,2.23-3.82h1.67l-3.19,5.18v3.35h-1.49Z"/></svg>