<svg width="288" height="49" viewBox="0 0 288 49" fill="none" xmlns="http://www.w3.org/2000/svg">
<path d="M69.596 40.2499V14.5773H59V8.83233H86.6574V14.5773H76.1063V40.2499H69.596Z" fill="#e2e2e1"/>
<path d="M103.781 40.7436C101.446 40.7436 99.2758 40.3397 97.2703 39.5318C95.2649 38.694 93.4988 37.542 91.9723 36.0759C90.4757 34.5798 89.2933 32.8593 88.4253 30.9144C87.5872 28.9396 87.1682 26.8151 87.1682 24.5411C87.1682 22.2671 87.5872 20.1576 88.4253 18.2127C89.2933 16.2379 90.4757 14.5174 91.9723 13.0513C93.4988 11.5552 95.2649 10.4032 97.2703 9.59533C99.2758 8.75752 101.446 8.33862 103.781 8.33862C106.115 8.33862 108.285 8.75752 110.291 9.59533C112.326 10.4032 114.092 11.5552 115.589 13.0513C117.115 14.5174 118.298 16.2379 119.136 18.2127C119.974 20.1576 120.393 22.2671 120.393 24.5411C120.393 26.8151 119.974 28.9396 119.136 30.9144C118.298 32.8593 117.115 34.5798 115.589 36.0759C114.092 37.542 112.326 38.694 110.291 39.5318C108.285 40.3397 106.115 40.7436 103.781 40.7436ZM103.781 34.7743C105.217 34.7743 106.534 34.5199 107.732 34.0113C108.929 33.4727 109.977 32.7546 110.875 31.8569C111.773 30.9294 112.476 29.8372 112.985 28.5805C113.494 27.3238 113.748 25.9773 113.748 24.5411C113.748 23.075 113.494 21.7285 112.985 20.5017C112.476 19.245 111.773 18.1678 110.875 17.2702C109.977 16.3426 108.929 15.6245 107.732 15.1158C106.534 14.5773 105.217 14.308 103.781 14.308C102.374 14.308 101.072 14.5773 99.8744 15.1158C98.6771 15.6245 97.6295 16.3426 96.7315 17.2702C95.8336 18.1678 95.1302 19.245 94.6213 20.5017C94.1125 21.7285 93.858 23.06 93.858 24.4962C93.858 25.9624 94.1125 27.3238 94.6213 28.5805C95.1302 29.8372 95.8336 30.9294 96.7315 31.8569C97.6295 32.7546 98.6771 33.4727 99.8744 34.0113C101.072 34.5199 102.374 34.7743 103.781 34.7743Z" fill="#e2e2e1"/>
<path d="M138.329 40.6987C135.485 40.6987 133.016 40.1302 130.921 38.9932C128.855 37.8562 127.254 36.2404 126.117 34.1459C124.979 32.0215 124.41 29.538 124.41 26.6955V8.83233H130.921V26.6955C130.921 28.3112 131.22 29.7325 131.819 30.9593C132.447 32.1561 133.315 33.0837 134.423 33.742C135.56 34.3703 136.877 34.6845 138.374 34.6845C139.87 34.6845 141.172 34.3703 142.28 33.742C143.387 33.0837 144.241 32.1561 144.839 30.9593C145.468 29.7325 145.782 28.3112 145.782 26.6955V8.83233H152.247V26.6955C152.247 29.5081 151.679 31.9766 150.541 34.101C149.404 36.1955 147.787 37.8263 145.692 38.9932C143.627 40.1302 141.172 40.6987 138.329 40.6987Z" fill="#e2e2e1"/>
<path d="M172.928 40.6987C170.593 40.6987 168.408 40.2948 166.373 39.4869C164.337 38.6491 162.557 37.4971 161.03 36.031C159.533 34.5648 158.351 32.8593 157.483 30.9144C156.645 28.9396 156.226 26.8151 156.226 24.5411C156.226 22.2372 156.645 20.1127 157.483 18.1678C158.351 16.193 159.548 14.4725 161.075 13.0064C162.601 11.5402 164.367 10.4032 166.373 9.59533C168.408 8.75752 170.593 8.33862 172.928 8.33862C174.664 8.33862 176.34 8.578 177.957 9.05674C179.573 9.53548 181.07 10.2087 182.447 11.0764C183.853 11.9442 185.051 12.9914 186.038 14.2182L181.638 18.5718C180.501 17.1655 179.184 16.1033 177.687 15.3851C176.221 14.667 174.634 14.308 172.928 14.308C171.521 14.308 170.204 14.5773 168.977 15.1158C167.75 15.6245 166.687 16.3426 165.789 17.2702C164.891 18.1678 164.188 19.245 163.679 20.5017C163.17 21.7285 162.916 23.075 162.916 24.5411C162.916 25.9773 163.17 27.3238 163.679 28.5805C164.188 29.8073 164.906 30.8845 165.834 31.812C166.762 32.7097 167.84 33.4128 169.067 33.9215C170.324 34.4302 171.686 34.6845 173.153 34.6845C174.799 34.6845 176.34 34.3404 177.777 33.6522C179.214 32.964 180.486 31.9766 181.593 30.69L185.859 34.9089C184.871 36.1058 183.689 37.1381 182.312 38.0058C180.935 38.8735 179.438 39.5467 177.822 40.0255C176.236 40.4743 174.604 40.6987 172.928 40.6987Z" fill="#e2e2e1"/>
<path d="M189.665 40.2499V8.83233H196.175V21.4891H210.633V8.83233H217.143V40.2499H210.633V27.3687H196.175V40.2499H189.665Z" fill="#e2e2e1"/>
<path d="M223.485 40.2499V8.83233H237.134C239.2 8.83233 240.981 9.20635 242.477 9.95439C244.004 10.7024 245.186 11.7646 246.024 13.141C246.862 14.4875 247.281 16.0733 247.281 17.8985C247.281 19.7238 246.862 21.3246 246.024 22.7009C245.186 24.0474 244.004 25.1096 242.477 25.8876C240.951 26.6356 239.17 27.0096 237.134 27.0096H226.942V40.2499H223.485ZM226.942 24.0025H236.865C238.99 24.0025 240.681 23.4639 241.938 22.3868C243.196 21.2797 243.824 19.7986 243.824 17.9434C243.824 16.0883 243.196 14.6221 241.938 13.545C240.681 12.4678 238.99 11.9292 236.865 11.9292H226.942V24.0025Z" fill="#e2e2e1"/>
<path d="M252.555 40.2499V8.83233H256.012V40.2499H252.555Z" fill="#e2e2e1"/>
<path d="M259.624 40.2499L271.747 23.9576L260.387 8.83233H264.608L273.812 21.3096L283.016 8.83233H287.057L275.833 23.9128L288 40.2499H283.824L273.767 26.5608L263.665 40.2499H259.624Z" fill="#e2e2e1"/>
<g clip-path="url(#clip0_125_1294)">
<path d="M0.721686 18.3139C0.807317 18.2313 0.896006 18.1488 0.987754 18.0631C1.09173 17.9653 1.20489 17.8643 1.31804 17.7634C1.3945 17.6961 1.47402 17.6258 1.55353 17.5554C2.03673 17.1334 2.52911 16.7297 3.03984 16.3473C7.59663 12.8883 15.3707 8.92145 23.1142 10.206C26.4936 8.14155 30.3286 6.93958 34.2615 6.69185C36.6745 6.53892 39.1211 6.74996 41.5218 7.34024C39.9835 5.75902 38.2158 4.37661 36.2524 3.24498C34.289 2.1103 32.2094 1.27229 30.0686 0.727885C26.1204 -0.272225 21.9612 -0.253875 17.9182 0.831872C11.6825 2.50484 6.47425 6.50222 3.24474 12.09C2.10401 14.0658 1.25994 16.1608 0.718628 18.3139H0.721686Z" fill="#e2e2e1"/>
<path d="M19.6584 11.6496C19.6217 11.6496 19.585 11.6435 19.5483 11.6404C19.585 11.6435 19.6187 11.6466 19.6554 11.6496H19.6584Z" fill="#e2e2e1"/>
<path d="M36.3962 14.3135C33.3991 12.5824 30.1665 11.6251 26.934 11.3774C27.2795 11.5395 27.619 11.7169 27.9554 11.9126C30.2797 13.2553 32.0657 15.1668 33.2431 17.3719C34.4787 18.4271 35.5888 19.5893 36.5644 20.8371C41.0967 26.6329 42.7879 34.2698 41.0264 41.4908C42.5953 39.9585 43.9653 38.203 45.0908 36.2517C46.0878 34.5237 46.8585 32.707 47.3967 30.8382C46.5343 24.1586 42.6778 17.9408 36.3931 14.3104L36.3962 14.3135Z" fill="#e2e2e1"/>
<path fill-rule="evenodd" clip-rule="evenodd" d="M23.1112 10.2091C24.4079 10.4048 25.6954 10.7932 26.931 11.3774C30.1666 11.6251 33.3961 12.5824 36.3932 14.3135C42.6779 17.9408 46.5343 24.1586 47.3968 30.8413C48.6048 26.6666 48.6568 22.2257 47.5038 17.9194C47.2072 16.8092 46.8341 15.7326 46.3937 14.6927C45.2285 11.9463 43.577 9.46281 41.5158 7.34331C39.115 6.75303 36.6654 6.54506 34.2555 6.69492C30.3226 6.94266 26.4875 8.14462 23.1082 10.2091H23.1112Z" fill="#e2e2e1"/>
<path d="M14.127 41.6407H14.123L14.127 41.6447V41.6407Z" fill="#e2e2e1"/>
<path d="M14.0954 35.9153C7.46515 32.0892 5.19592 23.6142 9.02179 16.9835C10.3368 14.705 12.1993 12.9433 14.3462 11.7658C14.4441 11.7108 14.5419 11.6588 14.6398 11.6099C14.6704 11.5946 14.701 11.5793 14.7285 11.564C14.7988 11.5273 14.8722 11.4906 14.9456 11.4569C14.9762 11.4416 15.0098 11.4264 15.0404 11.4111C15.1261 11.3713 15.2086 11.3315 15.2943 11.2918C15.3096 11.2826 15.3279 11.2765 15.3432 11.2704C15.4472 11.2245 15.5481 11.1817 15.6521 11.1358C15.6765 11.1266 15.701 11.1175 15.7224 11.1052C15.805 11.0716 15.8845 11.0379 15.9671 11.0073C15.9946 10.9951 16.0252 10.9859 16.0558 10.9737C16.1414 10.9401 16.227 10.9095 16.3127 10.8789C16.331 10.8728 16.3524 10.8636 16.3708 10.8575C16.4778 10.8177 16.5879 10.781 16.698 10.7443C16.7041 10.7443 16.7133 10.7382 16.7194 10.7382C16.8203 10.7046 16.9213 10.674 17.0222 10.6434C17.0466 10.6373 17.0711 10.6281 17.0925 10.622C17.1843 10.5945 17.276 10.57 17.3678 10.5425C17.3861 10.5363 17.4045 10.5333 17.4228 10.5272C17.6461 10.466 17.8754 10.411 18.1017 10.362C18.117 10.359 18.1323 10.3559 18.1476 10.3528C18.2485 10.3314 18.3495 10.31 18.4504 10.2917C18.4657 10.2917 18.481 10.2856 18.4993 10.2825C18.7317 10.2397 18.9672 10.203 19.2027 10.1693C19.2058 10.1693 19.2088 10.1693 19.2149 10.1693C19.3281 10.154 19.4382 10.1418 19.5513 10.1296C19.5666 10.1296 19.5819 10.1265 19.5942 10.1265C19.7012 10.1173 19.8052 10.1051 19.9122 10.0959C19.9214 10.0959 19.9306 10.0959 19.9397 10.0959C20.0712 10.0868 20.1997 10.0776 20.3312 10.0684C20.3343 10.0684 20.3373 10.0684 20.3434 10.0684C20.4627 10.0623 20.585 10.0592 20.7043 10.0562C20.7196 10.0562 20.7349 10.0562 20.7502 10.0562C20.9979 10.0501 21.2456 10.0531 21.4933 10.0623C21.5178 10.0623 21.5392 10.0623 21.5637 10.0623C21.6707 10.0653 21.7747 10.0715 21.8817 10.0776C21.9001 10.0776 21.9184 10.0776 21.9368 10.0776C22.0591 10.0868 22.1784 10.0959 22.2977 10.1051C22.3221 10.1051 22.3435 10.1112 22.368 10.1112C22.4659 10.1204 22.5637 10.1326 22.6616 10.1418C22.6952 10.1449 22.7258 10.151 22.7594 10.154C22.8787 10.1693 22.998 10.1846 23.1142 10.203C15.3707 8.91843 7.59665 12.8883 3.03986 16.3443C2.49549 16.7572 2.00006 17.164 1.55355 17.5524C1.47404 17.6228 1.39452 17.69 1.31807 17.7604C1.20491 17.8613 1.09481 17.9622 0.987775 18.0601C0.896027 18.1427 0.807338 18.2283 0.721707 18.3109C-0.266107 22.2471 -0.2447 26.3913 0.834862 30.4193C1.91748 34.4625 3.9818 38.0746 6.81985 40.9923C9.22058 41.5826 11.6702 41.7906 14.0801 41.6407C14.0954 41.6407 14.1107 41.6407 14.123 41.6376C14.0231 41.5826 14.0231 41.5826 14.123 41.6376C14.3064 41.6254 14.4899 41.6132 14.6734 41.5948C14.7377 41.5887 14.7988 41.5826 14.86 41.5765C14.9976 41.5642 15.1383 41.549 15.2759 41.5337C15.3463 41.5245 15.4166 41.5184 15.4869 41.5092C15.6246 41.4908 15.7622 41.4725 15.9029 41.4541C15.964 41.445 16.0282 41.4389 16.0894 41.4297C16.2821 41.4022 16.4778 41.3716 16.6705 41.3379C16.7102 41.3318 16.75 41.3226 16.7867 41.3165C16.9427 41.289 17.0986 41.2584 17.2515 41.2278C17.3249 41.2125 17.4014 41.1972 17.4748 41.1819C17.5971 41.1575 17.7164 41.1299 17.8357 41.1055C17.9152 41.0871 17.9947 41.0688 18.0773 41.0504C18.1965 41.0229 18.3158 40.9923 18.4351 40.9648C18.5115 40.9464 18.5849 40.9281 18.6614 40.9097C18.8418 40.8639 19.0192 40.8149 19.1966 40.7629C19.2761 40.7415 19.3556 40.7171 19.4351 40.6926C19.5422 40.662 19.6523 40.6284 19.7593 40.5947C19.8541 40.5672 19.9459 40.5366 20.0407 40.506C20.1324 40.4754 20.2242 40.4449 20.3159 40.4143C20.4138 40.3806 20.5116 40.347 20.6095 40.3133C20.6951 40.2828 20.7808 40.2522 20.8633 40.2216C21.2426 40.084 21.6157 39.9372 21.9857 39.7812C22.0499 39.7537 22.1142 39.7261 22.1784 39.7017C22.2915 39.6527 22.4047 39.6038 22.5178 39.5518C22.579 39.5273 22.6371 39.4998 22.6952 39.4692C22.8145 39.4142 22.9307 39.3591 23.05 39.3041C23.0897 39.2857 23.1264 39.2674 23.1662 39.246C23.5821 39.0441 23.9919 38.83 24.3987 38.6037C24.4293 38.5884 24.4598 38.57 24.4904 38.5517C24.6189 38.4783 24.7473 38.4049 24.8758 38.3284C24.9063 38.3101 24.9369 38.2917 24.9644 38.2764C25.3284 38.0593 25.6862 37.8329 26.0409 37.5974C26.2459 37.4598 26.4477 37.3222 26.6495 37.1784C26.6587 37.1693 26.6709 37.1631 26.6832 37.154C26.8177 37.0561 26.9523 36.9582 27.0869 36.8573C27.096 36.8512 27.1022 36.8451 27.1113 36.839C27.6649 36.423 28.2001 35.9856 28.72 35.5208C28.7261 35.5146 28.7322 35.5116 28.7383 35.5055C28.8668 35.3892 28.9983 35.273 29.1237 35.1538C24.836 38.2367 18.9672 38.7168 14.0954 35.9061V35.9153Z" fill="#e2e2e1"/>
<path fill-rule="evenodd" clip-rule="evenodd" d="M34.7967 27.0427C34.9191 30.4957 33.3196 36.1599 25.7321 42.3319C22.9644 44.5278 19.4443 46.0142 16.0497 46.9318C14.6918 46.4455 13.3645 45.8307 12.0892 45.0937C11.5969 44.8092 11.1198 44.5125 10.6519 44.1975C15.1842 44.2465 22.7105 43.0445 27.0043 39.3744C31.7813 35.2944 33.8854 31.8139 34.3655 28.3181C34.5093 27.9603 34.6346 27.5994 34.7417 27.2385C34.76 27.1742 34.7784 27.107 34.7967 27.0427Z" fill="#e2e2e1"/>
<path fill-rule="evenodd" clip-rule="evenodd" d="M24.1694 35.5146C17.903 35.5146 12.8263 30.4345 12.8263 24.1709C12.8263 17.9072 17.9061 12.8271 24.1694 12.8271C24.6954 12.8271 25.2123 12.8669 25.7199 12.9341C25.6751 12.9137 25.6751 12.9137 25.7199 12.9341C28.7782 13.3531 31.448 14.9894 33.2249 17.3383C32.0474 15.1485 30.2675 13.2461 27.9555 11.9096C27.6191 11.7138 27.2796 11.5395 26.934 11.3743C25.6985 10.7902 24.411 10.4048 23.1143 10.206H23.1082C22.992 10.1938 22.8757 10.1785 22.7595 10.1632C22.729 10.1601 22.6953 10.154 22.6617 10.151V10.1448C22.5638 10.1326 22.4659 10.1234 22.3681 10.1143C22.3558 10.1143 22.3436 10.1143 22.3314 10.1112H22.313L22.2977 10.1081C22.1785 10.0959 22.0561 10.0867 21.9369 10.0806C21.9185 10.0806 21.9002 10.0806 21.8818 10.0806C21.7748 10.0745 21.6708 10.0684 21.5638 10.0653C21.5485 10.0653 21.5362 10.0653 21.5209 10.0653C21.5118 10.0653 21.5026 10.0653 21.4934 10.0653C21.2457 10.0561 20.998 10.0561 20.7503 10.0592C20.735 10.0592 20.7197 10.0592 20.7044 10.0592C20.5851 10.0623 20.4628 10.0653 20.3435 10.0714C20.3405 10.0714 20.3374 10.0714 20.3313 10.0714C20.1998 10.0776 20.0713 10.0867 19.9398 10.099C19.8236 10.1081 19.7105 10.1204 19.5942 10.1295C19.5942 10.1295 19.5881 10.1295 19.5851 10.1295C19.582 10.1295 19.5759 10.1295 19.5728 10.1295C19.5667 10.1295 19.5576 10.1295 19.5514 10.1295C19.4383 10.1418 19.3282 10.154 19.215 10.1693C19.212 10.1693 19.2089 10.1693 19.2028 10.1693C18.9673 10.1999 18.7349 10.2397 18.4994 10.2825L18.4505 10.2916C18.3495 10.31 18.2486 10.3314 18.1477 10.3528C18.1355 10.3528 18.1263 10.3589 18.1141 10.3589C18.111 10.3589 18.1049 10.3589 18.1018 10.3589C17.8755 10.4079 17.6492 10.4629 17.4229 10.5241C17.4045 10.5302 17.3862 10.5333 17.3678 10.5394C17.2761 10.5638 17.1843 10.5914 17.0926 10.6189L17.0223 10.6403C16.9213 10.6709 16.8204 10.7015 16.7195 10.7351C16.7195 10.7351 16.7164 10.7351 16.7134 10.7351C16.7134 10.7351 16.7134 10.7351 16.7103 10.7351C16.7103 10.7351 16.7073 10.7351 16.7042 10.7351C16.7042 10.7351 16.7011 10.7351 16.6981 10.7351C16.588 10.7718 16.481 10.8085 16.3709 10.8483C16.3525 10.8544 16.3311 10.8636 16.3127 10.8697C16.2271 10.9003 16.1415 10.9339 16.0559 10.9645C16.0253 10.9767 15.9977 10.9859 15.9672 10.9981C15.8846 11.0287 15.8051 11.0624 15.7225 11.096C15.698 11.1052 15.6736 11.1144 15.6522 11.1266C15.5482 11.1694 15.4473 11.2153 15.3433 11.2612L15.328 11.2673C15.328 11.2673 15.3066 11.2765 15.2944 11.2826C15.2087 11.3223 15.1261 11.3621 15.0405 11.4019C15.0099 11.4172 14.9763 11.4324 14.9457 11.4477C14.8723 11.4844 14.802 11.5181 14.7286 11.5548C14.698 11.5701 14.6674 11.5854 14.6399 11.6007C14.5451 11.6496 14.4503 11.6985 14.3555 11.7505H14.3432V11.7536C12.1963 12.9311 10.3308 14.6958 9.01883 16.9713C5.19296 23.602 7.46218 32.0769 14.0925 35.9061C18.9643 38.7199 24.83 38.2366 29.1207 35.1537C29.6314 34.6766 30.1207 34.175 30.5917 33.652L30.659 33.5756L30.7263 33.4991C30.7936 33.4226 30.8639 33.3431 30.9312 33.2636C29.0412 34.6674 26.7016 35.4993 24.1694 35.4993V35.5146Z" fill="#e2e2e1"/>
<path d="M36.5644 20.8372C35.7785 19.834 34.9038 18.8889 33.9496 18.0051C33.7172 17.791 33.4848 17.5769 33.2432 17.3689C33.3227 17.5157 33.3961 17.6625 33.4695 17.8093C33.4695 17.8154 33.4756 17.8215 33.4787 17.8277C33.4848 17.8368 33.4878 17.8491 33.494 17.8582C33.5674 18.0112 33.6377 18.161 33.705 18.317C33.757 18.4363 33.8059 18.5525 33.8548 18.6718C33.8548 18.6749 33.8579 18.681 33.8609 18.684C33.8609 18.6901 33.8671 18.6963 33.8671 18.7054C33.916 18.8247 33.9649 18.9471 34.0077 19.0694C34.6072 20.3356 35.4268 22.4948 35.6745 25.1832C35.8977 27.5994 35.6623 30.4468 34.3839 33.4655C31.6009 40.0442 25.1847 45.2374 19.0315 47.7882C22.7503 48.6017 26.6374 48.5191 30.4204 47.5068C30.6834 47.4364 30.9434 47.363 31.2033 47.2835C34.9436 46.1488 38.2893 44.1609 41.0234 41.4908C42.7849 34.2699 41.0968 26.6299 36.5614 20.8372H36.5644Z" fill="#e2e2e1"/>
</g>
<defs>
<clipPath id="clip0_125_1294">
<rect width="48.3387" height="48.3387" fill="#e2e2e1"/>
</clipPath>
</defs>
</svg>
